<svg id="visual" viewBox="0 0 1920 1080" width="1920" height="1080" xmlns="http://www.w3.org/2000/svg" xmlns:xlink="http://www.w3.org/1999/xlink" version="1.1"><rect x="0" y="0" width="1920" height="1080" fill="#01080c"></rect><path d="M0 811L29.2 813.5C58.3 816 116.7 821 174.8 811C233 801 291 776 349.2 776.5C407.3 777 465.7 803 523.8 803.3C582 803.7 640 778.3 698.2 778.7C756.3 779 814.7 805 872.8 809.2C931 813.3 989 795.7 1047.2 790.3C1105.3 785 1163.7 792 1221.8 798.8C1280 805.7 1338 812.3 1396.2 814.5C1454.3 816.7 1512.7 814.3 1570.8 822.2C1629 830 1687 848 1745.2 845C1803.3 842 1861.7 818 1890.8 806L1920 794L1920 1081L1890.8 1081C1861.7 1081 1803.3 1081 1745.2 1081C1687 1081 1629 1081 1570.8 1081C1512.7 1081 1454.3 1081 1396.2 1081C1338 1081 1280 1081 1221.8 1081C1163.7 1081 1105.3 1081 1047.2 1081C989 1081 931 1081 872.8 1081C814.7 1081 756.3 1081 698.2 1081C640 1081 582 1081 523.8 1081C465.7 1081 407.3 1081 349.2 1081C291 1081 233 1081 174.8 1081C116.7 1081 58.3 1081 29.2 1081L0 1081Z" fill="#0854ac"></path><path d="M0 867L29.2 868.7C58.3 870.3 116.7 873.7 174.8 875.5C233 877.3 291 877.7 349.2 868.8C407.3 860 465.7 842 523.8 830.8C582 819.7 640 815.3 698.2 829C756.3 842.7 814.7 874.3 872.8 878C931 881.7 989 857.3 1047.2 840.2C1105.3 823 1163.7 813 1221.8 810.7C1280 808.3 1338 813.7 1396.2 821.8C1454.3 830 1512.7 841 1570.8 854.3C1629 867.7 1687 883.3 1745.2 888.8C1803.3 894.3 1861.7 889.7 1890.8 887.3L1920 885L1920 1081L1890.8 1081C1861.7 1081 1803.3 1081 1745.2 1081C1687 1081 1629 1081 1570.8 1081C1512.7 1081 1454.3 1081 1396.2 1081C1338 1081 1280 1081 1221.8 1081C1163.7 1081 1105.3 1081 1047.2 1081C989 1081 931 1081 872.8 1081C814.7 1081 756.3 1081 698.2 1081C640 1081 582 1081 523.8 1081C465.7 1081 407.3 1081 349.2 1081C291 1081 233 1081 174.8 1081C116.7 1081 58.3 1081 29.2 1081L0 1081Z" fill="#007ccc"></path><path d="M0 918L29.2 921.2C58.3 924.3 116.7 930.7 174.8 933.7C233 936.7 291 936.3 349.2 924.8C407.3 913.3 465.7 890.7 523.8 889C582 887.3 640 906.7 698.2 915.2C756.3 923.7 814.7 921.3 872.8 917.2C931 913 989 907 1047.2 905C1105.3 903 1163.7 905 1221.8 902.2C1280 899.3 1338 891.7 1396.2 895C1454.3 898.3 1512.7 912.7 1570.8 920.2C1629 927.7 1687 928.3 1745.2 931.3C1803.3 934.3 1861.7 939.7 1890.8 942.3L1920 945L1920 1081L1890.8 1081C1861.7 1081 1803.3 1081 1745.2 1081C1687 1081 1629 1081 1570.8 1081C1512.7 1081 1454.3 1081 1396.2 1081C1338 1081 1280 1081 1221.8 1081C1163.7 1081 1105.3 1081 1047.2 1081C989 1081 931 1081 872.8 1081C814.7 1081 756.3 1081 698.2 1081C640 1081 582 1081 523.8 1081C465.7 1081 407.3 1081 349.2 1081C291 1081 233 1081 174.8 1081C116.7 1081 58.3 1081 29.2 1081L0 1081Z" fill="#00a3e6"></path><path d="M0 926L29.2 933.5C58.3 941 116.7 956 174.8 966.2C233 976.3 291 981.7 349.2 980.5C407.3 979.3 465.7 971.7 523.8 969.8C582 968 640 972 698.2 970.8C756.3 969.7 814.7 963.3 872.8 954.2C931 945 989 933 1047.2 934.8C1105.3 936.7 1163.7 952.3 1221.8 953.3C1280 954.3 1338 940.7 1396.2 936.7C1454.3 932.7 1512.7 938.3 1570.8 946.5C1629 954.7 1687 965.3 1745.2 971.5C1803.3 977.7 1861.7 979.3 1890.8 980.2L1920 981L1920 1081L1890.8 1081C1861.7 1081 1803.3 1081 1745.2 1081C1687 1081 1629 1081 1570.8 1081C1512.7 1081 1454.3 1081 1396.2 1081C1338 1081 1280 1081 1221.8 1081C1163.7 1081 1105.3 1081 1047.2 1081C989 1081 931 1081 872.8 1081C814.7 1081 756.3 1081 698.2 1081C640 1081 582 1081 523.8 1081C465.7 1081 407.3 1081 349.2 1081C291 1081 233 1081 174.8 1081C116.7 1081 58.3 1081 29.2 1081L0 1081Z" fill="#00caf9"></path><path d="M0 1015L29.2 1013.7C58.3 1012.3 116.7 1009.7 174.8 1006.8C233 1004 291 1001 349.2 1004C407.3 1007 465.7 1016 523.8 1014.5C582 1013 640 1001 698.2 1000.2C756.3 999.3 814.7 1009.7 872.8 1016.7C931 1023.7 989 1027.3 1047.2 1027C1105.3 1026.7 1163.7 1022.3 1221.8 1022.8C1280 1023.3 1338 1028.7 1396.2 1029.7C1454.3 1030.7 1512.7 1027.3 1570.8 1020.8C1629 1014.3 1687 1004.7 1745.2 1001.3C1803.3 998 1861.7 1001 1890.8 1002.5L1920 1004L1920 1081L1890.8 1081C1861.7 1081 1803.3 1081 1745.2 1081C1687 1081 1629 1081 1570.8 1081C1512.7 1081 1454.3 1081 1396.2 1081C1338 1081 1280 1081 1221.8 1081C1163.7 1081 1105.3 1081 1047.2 1081C989 1081 931 1081 872.8 1081C814.7 1081 756.3 1081 698.2 1081C640 1081 582 1081 523.8 1081C465.7 1081 407.3 1081 349.2 1081C291 1081 233 1081 174.8 1081C116.7 1081 58.3 1081 29.2 1081L0 1081Z" fill="#0bf0ff"></path></svg>